<svg xmlns="http://www.w3.org/2000/svg" 
  xmlns:xlink="http://www.w3.org/1999/xlink" viewBox="0 0 350 330">
  <g id="airship">
    <animate id="airshipDisappear" attributeName="opacity" dur="100ms" values="1; 0" calcMode="linear" begin="cloud2opacity.end" repeatCount="1" fill="freeze"/>
    <g id="airship-body">
      <g id="airship-cabine">
        <animateTransform attributeName="transform" type="skewX" values="-2; 0; 2; 0; -2" dur="1500ms" additive="sum" calcMode="spline" keySplines="0.11 0 0.5 0; 0.5 1 0.89 1; 0.11 0 0.5 0; 0.5, 1, 0.89, 1" repeatCount="indefinite" end="airshipDisappear.end" />
        <animateTransform attributeName="transform" type="scale" values="1, 0.9; 1, 1; 1, 0.9; 1, 1; 1, 0.9" dur="1500ms" additive="sum" calcMode="spline" keySplines="0.11 0 0.5 0; 0.5 1 0.89 1; 0.11 0 0.5 0; 0.5, 1, 0.89, 1" repeatCount="indefinite" end="airshipDisappear.end" />
        <animateTransform attributeName="transform" type="translate" values="7 25; 0 0; -7 25; 0 0; 7 25" dur="1500ms" additive="sum" calcMode="spline" keySplines="0.11 0 0.5 0; 0.5 1 0.89 1; 0.11 0 0.5 0; 0.5, 1, 0.89, 1" repeatCount="indefinite" end="airshipDisappear.end" />

        <path d="M175.44,249.28h48.36a13.27,13.27,0,0,0,13-10.65l3.74-18.32H172.36v25.89A3.09,3.09,0,0,0,175.44,249.28Z" fill="none" stroke="#fff" stroke-linecap="round" stroke-linejoin="round" stroke-width="2"/>
        <path d="M235.79,241.69h-9.22a8.31,8.31,0,0,1-8.28-8.31V220.31" fill="none" stroke="#fff" stroke-linecap="round" stroke-miterlimit="10" stroke-width="2"/>
        <path d="M204.25,231.88h-2.05a3.45,3.45,0,0,0-3.43,3.45v2.92a3.45,3.45,0,0,0,3.43,3.45h2.05a3.45,3.45,0,0,0,3.43-3.45v-2.92A3.44,3.44,0,0,0,204.25,231.88Z" fill="none" stroke="#fff" stroke-linecap="round" stroke-linejoin="round" stroke-width="2"/>
        <path d="M185.64,231.88h-2.05a3.45,3.45,0,0,0-3.43,3.45v2.92a3.45,3.45,0,0,0,3.43,3.45h2.05a3.45,3.45,0,0,0,3.43-3.45v-2.92A3.45,3.45,0,0,0,185.64,231.88Z" fill="none" stroke="#fff" stroke-linecap="round" stroke-linejoin="round" stroke-width="2"/>
      </g>

      <g id="airship-motor-1">
        <animateTransform attributeName="transform" type="translate" values="0 3; 0 -3; 0 3" dur="3000ms" calcMode="spline" keySplines="0.37 0 0.63 1; 0.37 0 0.63 1" repeatCount="indefinite" end="airshipDisappear.end"/>
        <path d="M123.23,173.34h9.16a3.29,3.29,0,0,1,3.29,3.3v5.71a3.29,3.29,0,0,1-3.29,3.3H115.57a1.32,1.32,0,0,1-1.32-1.32v-2a9,9,0,0,1,9-9" fill="#068e4d"/>
        <path d="M123.23,173.34h9.16a3.29,3.29,0,0,1,3.29,3.3v5.71a3.29,3.29,0,0,1-3.29,3.3H115.57a1.32,1.32,0,0,1-1.32-1.32v-2A9,9,0,0,1,123.23,173.34Z" fill="none" stroke="#fff" stroke-linecap="round" stroke-linejoin="round" stroke-width="2"/>
        <path d="M123.23,207.39h9.16a3.29,3.29,0,0,0,3.29-3.3v-5.71a3.29,3.29,0,0,0-3.29-3.3H115.57a1.32,1.32,0,0,0-1.32,1.32v2a9,9,0,0,0,9,9" fill="#068e4d"/>
        <path d="M123.23,207.39h9.16a3.29,3.29,0,0,0,3.29-3.3v-5.71a3.29,3.29,0,0,0-3.29-3.3H115.57a1.32,1.32,0,0,0-1.32,1.32v2A9,9,0,0,0,123.23,207.39Z" fill="none" stroke="#fff" stroke-linecap="round" stroke-linejoin="round" stroke-width="2"/>
      </g>

      <g id="airship-balloon">
        <path d="M205,227.08c43.38,0,74.86-15.55,74.86-37s-31.48-37-74.86-37c-27.94,0-55.36,13.53-73.46,24.87a14.3,14.3,0,0,0,0,24.21c18.09,11.33,45.52,24.87,73.46,24.87" fill="#068e4d"/>
        <path d="M205,176.09c-28.23,0-56.07,5.76-72.81,10-3.95,1-6,2.66-6.08,4.34A12.93,12.93,0,0,1,132.18,179c16.74-10.5,44.58-24.68,72.81-24.68,44.81,0,73.64,16,73.64,35.75,0,0.12,0,.24,0,0.37-0.37-7.95-29.1-14.37-73.63-14.37" fill="#36e69a"/>
        <path d="M132.18,195.12c16.74,4.27,44.58,10,72.81,10,44.14,0,72.75-6.32,73.6-14.18-0.86,19.34-29.45,34.86-73.6,34.86-28.23,0-56.07-14.19-72.81-24.68a12.88,12.88,0,0,1-6-10.18c0.26,1.61,2.26,3.18,6,4.14" fill="#068e4d"/>
        <path d="M132.18,186.12c16.74-4.27,44.58-10,72.81-10,44.53,0,73.26,6.43,73.61,14.38,0,0.17,0,.34,0,0.51-0.85,7.86-29.45,14.17-73.6,14.17-28.23,0-56.07-5.76-72.81-10-3.79-1-5.79-2.53-6-4.13l0-.51c0.13-1.69,2.15-3.36,6.1-4.37" fill="#25b774">
          <animate attributeName="d" values="M 132.18 186.12 C 148.5 180.5 176.77 169 205 169 C 249.53 169 278.25 182.55 278.6 190.5 C 278.6 190.67 278.6 190.84 278.6 191.01 C 277.75 198.87 249.15 205.18 205 205.18 C 176.77 205.18 148.93 199.42 132.19 195.18 C 128.4 194.18 126.4 192.65 126.19 191.05 L 126.19 190.54 C 126.32 188.85 128.34 187.18 132.29 186.17;
              M 132.18 186.12 C 148.92 181.85 176.76 176.12 204.99 176.12 C 249.52 176.12 278.25 182.55 278.6 190.5 C 278.6 190.67 278.6 190.84 278.6 191.01 C 277.75 198.87 249.14 211 204.99 211 C 176.76 211 148.93 199.42 132.19 195.18 C 128.4 194.18 126.4 192.65 126.19 191.05 L 126.19 190.54 C 126.32 188.85 128.34 187.18 132.29 186.17;
              M 132.18 186.12 C 148.5 180.5 176.77 169 205 169 C 249.53 169 278.25 182.55 278.6 190.5 C 278.6 190.67 278.6 190.84 278.6 191.01 C 277.75 198.87 249.15 205.18 205 205.18 C 176.77 205.18 148.93 199.42 132.19 195.18 C 128.4 194.18 126.4 192.65 126.19 191.05 L 126.19 190.54 C 126.32 188.85 128.34 187.18 132.29 186.17" dur="3000ms" calcMode="spline" keySplines="0.37 0 0.63 1; 0.37 0 0.63 1" repeatCount="indefinite" end="airshipDisappear.end"/>
        </path>
        <path d="M205,227.08c43.38,0,74.86-15.55,74.86-37s-31.48-37-74.86-37c-27.94,0-55.36,13.53-73.46,24.87a14.3,14.3,0,0,0,0,24.21C149.63,213.54,177.06,227.08,205,227.08Z" fill="none" stroke="#fff" stroke-width="2"/>
      </g>

      <g id="airship-motor-2">
        <animateTransform attributeName="transform" type="translate" values="0 -3; 0 3; 0 -3" dur="3000ms" calcMode="spline" keySplines="0.37 0 0.63 1; 0.37 0 0.63 1" repeatCount="indefinite" end="airshipDisappear.end"/>
        <path d="M123.23,173.34h9.16a3.29,3.29,0,0,1,3.29,3.3v5.71a3.29,3.29,0,0,1-3.29,3.3H115.57a1.32,1.32,0,0,1-1.32-1.32v-2a9,9,0,0,1,9-9" fill="#068e4d"/>
        <path d="M123.23,173.34h9.16a3.29,3.29,0,0,1,3.29,3.3v5.71a3.29,3.29,0,0,1-3.29,3.3H115.57a1.32,1.32,0,0,1-1.32-1.32v-2A9,9,0,0,1,123.23,173.34Z" fill="none" stroke="#fff" stroke-linecap="round" stroke-linejoin="round" stroke-width="2"/>
        <path d="M123.23,207.39h9.16a3.29,3.29,0,0,0,3.29-3.3v-5.71a3.29,3.29,0,0,0-3.29-3.3H115.57a1.32,1.32,0,0,0-1.32,1.32v2a9,9,0,0,0,9,9" fill="#068e4d"/>
        <path d="M123.23,207.39h9.16a3.29,3.29,0,0,0,3.29-3.3v-5.71a3.29,3.29,0,0,0-3.29-3.3H115.57a1.32,1.32,0,0,0-1.32,1.32v2A9,9,0,0,0,123.23,207.39Z" fill="none" stroke="#fff" stroke-linecap="round" stroke-linejoin="round" stroke-width="2"/>
      </g>
    </g>

    <g id="airship-wind">
      <line x1="106.25" y1="179.49" x2="84.05" y2="179.49" fill="none" stroke="#fff" stroke-linecap="round" stroke-miterlimit="10" stroke-width="2">
        <animate attributeName="x2" values="84.05; 92; 84.05;" dur="300ms" calcMode="linear" repeatCount="indefinite" end="airshipDisappear.end"/>
      </line>
      <line x1="106.25" y1="201.23" x2="84.05" y2="201.23" fill="none" stroke="#fff" stroke-linecap="round" stroke-miterlimit="10" stroke-width="2">
        <animate attributeName="x2" values="84.05; 92; 84.05;" dur="300ms" begin="50ms" calcMode="linear" repeatCount="indefinite" end="airshipDisappear.end"/>
      </line>
      <line x1="106.25" y1="190.98" x2="68.77" y2="190.98" fill="none" stroke="#fff" stroke-linecap="round" stroke-miterlimit="10" stroke-width="2">
        <animate attributeName="x2" values="68.77; 80; 68.77;" dur="300ms" begin="70ms" calcMode="linear" repeatCount="indefinite" end="airshipDisappear.end"/>
      </line>
    </g>
  </g>

  <g id="clouds">
    <g id="cloud-1" opacity="0">
      <animate id="cloud1opacity" attributeName="opacity" values="0; 1; 1; 0" dur="1500ms" repeatCount="1" keyTimes="0; 0.1; 0.9; 1" fill="freeze" />

      <path d="M41.77,97.54H77.06a12.4,12.4,0,1,1,24.8,0h17.93" fill="none" stroke="#fff" stroke-linecap="round" stroke-miterlimit="10" stroke-width="2">
        <animateTransform attributeName="transform" type="translate" values="180 0; 0 0" dur="1500ms" calcMode="linear" repeatCount="1" />
      </path>
      <line x1="68.95" y1="107.8" x2="131.86" y2="107.8" fill="none" stroke="#fff" stroke-linecap="round" stroke-miterlimit="10" stroke-width="2">
        <animateTransform attributeName="transform" type="translate" values="180 0; 0 0" dur="1600ms" calcMode="linear" repeatCount="1" />
      </line>
    </g>
    <g id="cloud-2" opacity="0">
      <animate id="cloud2opacity" attributeName="opacity" values="0; 1; 1; 0" dur="2000ms" begin="cloud1opacity.end-100ms" repeatCount="1" keyTimes="0; 0.1; 0.9; 1" fill="freeze" />

      <path d="M278.75,82.91H251.39a12.4,12.4,0,1,0-24.8,0H208.65" fill="none" stroke="#fff" stroke-linecap="round" stroke-miterlimit="10" stroke-width="2">
        <animateTransform attributeName="transform" type="translate" values="0 0; -170 0" dur="2000ms" begin="cloud1opacity.end-100ms" calcMode="linear" repeatCount="1" />
      </path>
      <line x1="287.01" y1="82.91" x2="309.21" y2="82.91" fill="none" stroke="#fff" stroke-linecap="round" stroke-miterlimit="10" stroke-width="2">
        <animateTransform attributeName="transform" type="translate" values="0 0; -170 0" dur="2000ms" begin="cloud1opacity.end-100ms" calcMode="linear" repeatCount="1" />
      </line>
      <line x1="258.96" y1="93.19" x2="298.74" y2="93.19" fill="none" stroke="#fff" stroke-linecap="round" stroke-miterlimit="10" stroke-width="2">
        <animateTransform attributeName="transform" type="translate" values="0 0; -170 0" dur="2300ms" begin="cloud1opacity.end-100ms" calcMode="linear" repeatCount="1" />
      </line>
    </g>
  </g>

  <g id="mountain">
    <path d="M 289.94 327.88 L 244.88 327.88 L 212.8 296.58 C 212.459 296.292 212.027 296.134 211.58 296.134 C 211.133 296.134 210.701 296.292 210.36 296.58 L 200.16 306.81 C 199.848 307.08 199.448 307.229 199.035 307.229 C 198.622 307.229 198.222 307.08 197.91 306.81 L 178.91 286.64 C 178.477 286.274 177.927 286.072 177.36 286.072 C 176.793 286.072 176.243 286.274 175.81 286.64 L 149.39 312.28 C 149.079 312.552 148.679 312.702 148.265 312.702 C 147.851 312.702 147.451 312.552 147.14 312.28 L 144.51 309.36 C 144.195 309.071 143.782 308.911 143.355 308.911 C 142.928 308.911 142.515 309.071 142.2 309.36 L 124.63 329 L 80.78 329" fill="none" stroke="#fff" stroke-linecap="round" stroke-miterlimit="10" stroke-width="2">
      <animate attributeName="d" dur="250ms" calcMode="linear" begin="cloud2opacity.end-200ms" repeatCount="1" fill="freeze" values="M 289.94 327.88 L 244.88 327.88 L 212.8 296.58 C 212.459 296.292 212.027 296.134 211.58 296.134 C 211.133 296.134 210.701 296.292 210.36 296.58 L 200.16 306.81 C 199.848 307.08 199.448 307.229 199.035 307.229 C 198.622 307.229 198.222 307.08 197.91 306.81 L 178.91 286.64 C 178.477 286.274 177.927 286.072 177.36 286.072 C 176.793 286.072 176.243 286.274 175.81 286.64 L 149.39 312.28 C 149.079 312.552 148.679 312.702 148.265 312.702 C 147.851 312.702 147.451 312.552 147.14 312.28 L 144.51 309.36 C 144.195 309.071 143.782 308.911 143.355 308.911 C 142.928 308.911 142.515 309.071 142.2 309.36 L 124.63 329 L 80.78 329; 
        M 289.94 327.88 L 278.277 327.88 L 254.95 327.88 C 254.633 327.88 254.317 327.88 254 327.88 C 253.294 327.88 252.588 327.88 251.882 327.88 L 220.118 327.88 C 220.065 327.88 220.013 327.88 219.96 327.88 C 219.777 327.88 219.595 327.88 219.412 327.88 L 185.529 327.88 C 185.343 327.88 185.156 327.88 184.97 327.88 C 184.686 327.88 184.402 327.88 184.118 327.88 L 162.235 327.88 C 162.038 327.88 161.841 327.88 161.643 327.88 C 153.868 327.88 146.092 327.88 138.317 327.88 L 115.647 327.88 C 115.428 327.88 115.209 327.88 114.99 327.88 C 114.974 327.88 114.957 327.88 114.941 327.88 L 91.663 327.88 L 80 327.88" />
    </path>
  </g>
</svg>
